<svg xmlns="http://www.w3.org/2000/svg" viewBox="0 0 200 140" role="img">
  <rect width="200" height="140" fill="#ece7dd"/>
  <g fill="none" stroke="#4a4a44" stroke-width="1">
    <rect x="22" y="22" width="48" height="96"/>
    <rect x="76" y="22" width="48" height="96"/>
    <rect x="130" y="22" width="48" height="96"/>
    <line x1="28" y1="34" x2="64" y2="34"/>
    <line x1="28" y1="44" x2="64" y2="44"/>
    <line x1="28" y1="54" x2="60" y2="54"/>
    <line x1="28" y1="68" x2="64" y2="68"/>
    <line x1="28" y1="78" x2="64" y2="78"/>
    <line x1="28" y1="88" x2="56" y2="88"/>
    <line x1="28" y1="102" x2="64" y2="102"/>
    <line x1="136" y1="34" x2="172" y2="34"/>
    <line x1="136" y1="44" x2="172" y2="44"/>
    <line x1="136" y1="54" x2="170" y2="54"/>
    <line x1="136" y1="68" x2="172" y2="68"/>
    <line x1="136" y1="78" x2="172" y2="78"/>
    <line x1="136" y1="88" x2="166" y2="88"/>
    <line x1="136" y1="102" x2="172" y2="102"/>
  </g>
  <g stroke="#b8390e" stroke-width="1">
    <line x1="82" y1="34" x2="118" y2="34"/>
    <line x1="82" y1="44" x2="118" y2="44"/>
    <line x1="82" y1="54" x2="114" y2="54"/>
    <line x1="82" y1="68" x2="118" y2="68"/>
    <line x1="82" y1="78" x2="118" y2="78"/>
    <line x1="82" y1="88" x2="110" y2="88"/>
    <line x1="82" y1="102" x2="118" y2="102"/>
  </g>
</svg>
